<svg width="180" height="180" viewBox="0 0 180 180" xmlns="http://www.w3.org/2000/svg">
  <defs>
    <!-- Gradient for the book -->
    <linearGradient id="bookGradient" x1="0%" y1="0%" x2="100%" y2="100%">
      <stop offset="0%" style="stop-color:#1e3a8a;stop-opacity:1" />
      <stop offset="50%" style="stop-color:#3b82f6;stop-opacity:1" />
      <stop offset="100%" style="stop-color:#1e40af;stop-opacity:1" />
    </linearGradient>

    <!-- Shadow filter -->
    <filter id="shadow" x="-10%" y="-10%" width="120%" height="120%">
      <feDropShadow dx="3" dy="6" stdDeviation="4" flood-color="#000000" flood-opacity="0.2"/>
    </filter>
  </defs>

  <!-- Rounded background -->
  <rect width="180" height="180" rx="40" fill="#ffffff"/>

  <!-- Main book design -->
  <g transform="translate(25, 30)">
    <!-- Book spine with gradient -->
    <rect x="0" y="0" width="20" height="120" fill="url(#bookGradient)" rx="4" filter="url(#shadow)"/>

    <!-- Book pages -->
    <rect x="20" y="0" width="100" height="120" fill="#ffffff" stroke="#e5e7eb" stroke-width="2" rx="4" filter="url(#shadow)"/>

    <!-- Book binding detail -->
    <rect x="15" y="0" width="5" height="120" fill="#1e40af" rx="2"/>
    <circle cx="17.5" cy="20" r="3" fill="#fbbf24"/>
    <circle cx="17.5" cy="60" r="3" fill="#fbbf24"/>
    <circle cx="17.5" cy="100" r="3" fill="#fbbf24"/>

    <!-- Text lines representing scripture -->
    <line x1="30" y1="25" x2="105" y2="25" stroke="#f3f4f6" stroke-width="4" stroke-linecap="round"/>
    <line x1="30" y1="40" x2="100" y2="40" stroke="#f3f4f6" stroke-width="4" stroke-linecap="round"/>
    <line x1="30" y1="55" x2="110" y2="55" stroke="#f3f4f6" stroke-width="4" stroke-linecap="round"/>
    <line x1="30" y1="70" x2="95" y2="70" stroke="#f3f4f6" stroke-width="4" stroke-linecap="round"/>
    <line x1="30" y1="85" x2="105" y2="85" stroke="#f3f4f6" stroke-width="4" stroke-linecap="round"/>
    <line x1="30" y1="100" x2="100" y2="100" stroke="#f3f4f6" stroke-width="4" stroke-linecap="round"/>
  </g>
</svg>